<svg xmlns="http://www.w3.org/2000/svg" width="20" height="14" viewBox="0 0 20 14">
    <g fill="none" fill-rule="evenodd">
        <path fill="#FFF" d="M-184-568h360V77h-360z"/>
        <path fill="#CACAD6" fill-rule="nonzero" d="M17.5 5h-15C1.122 5 0 6.043 0 7.334v9.332C0 17.954 1.117 19 2.5 19h15c1.379 0 2.5-1.043 2.5-2.335v-9.33C19.996 6.047 18.879 5 17.5 5zm0 1.169c.217 0 .419.053.595.144L10 13.053 1.905 6.31c.176-.091.378-.14.596-.14h14.998zm1.248 10.497c0 .644-.563 1.165-1.249 1.165H2.501c-.69 0-1.249-.521-1.249-1.165V7.335v-.011L10 14.614l8.744-7.286v9.337h.004z"/>
        <path fill="#000" d="M-184-568h360V77h-360z" opacity=".9"/>
        <path fill="#CACAD6" fill-rule="nonzero" d="M17.5 0h-15C1.122 0 0 1.043 0 2.334v9.331C0 12.954 1.117 14 2.5 14h15c1.379 0 2.5-1.043 2.5-2.335v-9.33C19.996 1.047 18.879 0 17.5 0zm0 1.169c.217 0 .419.052.595.143L10 8.053 1.905 1.31c.176-.091.378-.14.596-.14h14.998zm1.248 10.496c0 .645-.563 1.166-1.249 1.166H2.501c-.69 0-1.249-.521-1.249-1.165V2.333v-.01L10 9.614l8.744-7.287v9.338h.004z"/>
    </g>
</svg>
