<svg xmlns="http://www.w3.org/2000/svg" width="20" height="22" viewBox="0 0 20 22">
    <g fill="none" fill-rule="evenodd">
        <path fill="#FFF" d="M-66-217h360v645H-66z"/>
        <g fill="#A4A4BC" fill-rule="nonzero" stroke="#A4A4BC" stroke-width=".4">
            <path d="M18.061 21H1.939A.937.937 0 0 1 1 20.068V1.932C1 1.418 1.421 1 1.94 1H18.06c.518 0 .939.418.939.932v18.136a.937.937 0 0 1-.939.932zM1.939 1.25a.684.684 0 0 0-.686.682v18.136c0 .376.308.681.686.681h16.122a.684.684 0 0 0 .686-.681V1.932a.684.684 0 0 0-.686-.681H1.939z"/>
            <path d="M15.872 10.5H5.128c-.07 0-.128-.112-.128-.25s.057-.25.128-.25h10.744c.07 0 .128.112.128.25s-.057.25-.128.25zM15.872 13.5H5.128c-.07 0-.128-.112-.128-.25s.057-.25.128-.25h10.744c.07 0 .128.112.128.25s-.057.25-.128.25zM15.872 16.5H5.128c-.07 0-.128-.112-.128-.25s.057-.25.128-.25h10.744c.07 0 .128.112.128.25s-.057.25-.128.25zM11.918 5.5H5.082C5.036 5.5 5 5.388 5 5.25S5.036 5 5.082 5h6.836c.045 0 .082.112.082.25s-.036.25-.082.25zM15.872 7.5H5.128C5.058 7.5 5 7.388 5 7.25S5.057 7 5.128 7h10.744c.07 0 .128.112.128.25s-.057.25-.128.25z"/>
        </g>
    </g>
</svg>
