<svg xmlns="http://www.w3.org/2000/svg" width="23" height="20" viewBox="0 0 23 20">
    <g fill="none" fill-rule="evenodd">
        <path fill="#FFF" d="M-23-218h360v645H-23z"/>
        <g fill="#A4A4BC" fill-rule="nonzero">
            <path d="M21.438 5.056a7.811 7.811 0 0 0-3.907-2.762.399.399 0 1 0-.236.762 6.916 6.916 0 0 1 4.886 6.637 6.909 6.909 0 0 1-4.924 6.65.399.399 0 1 0 .232.763 7.808 7.808 0 0 0 3.936-2.759 7.68 7.68 0 0 0 1.554-4.654c0-1.686-.533-3.29-1.54-4.637z"/>
            <path d="M17.88 12.6c.635-.843.97-1.847.97-2.904a4.792 4.792 0 0 0-.961-2.893A4.873 4.873 0 0 0 15.45 5.08a.399.399 0 1 0-.236.762 4.015 4.015 0 0 1 2.837 3.854c0 1.789-1.149 3.34-2.86 3.86a.399.399 0 1 0 .233.764 4.871 4.871 0 0 0 2.456-1.72zM11.907.07a.399.399 0 0 0-.411.023L5.25 4.344H2.245A2.236 2.236 0 0 0 .011 6.578v6.093a2.236 2.236 0 0 0 2.234 2.234H5.25l6.245 4.251a.399.399 0 0 0 .623-.33V.424a.399.399 0 0 0-.212-.353zM5.598 14.176a.399.399 0 0 0-.225-.069H2.245A1.438 1.438 0 0 1 .81 12.671V6.578c0-.792.644-1.436 1.436-1.436h3.128c.08 0 .159-.024.225-.07l5.722-3.895v16.896l-5.722-3.897z"/>
        </g>
    </g>
</svg>
