<svg xmlns="http://www.w3.org/2000/svg" width="22" height="24" viewBox="0 0 22 24">
    <g fill="none" fill-rule="evenodd">
        <path fill="#FFF" d="M-278-39H82v645h-360z"/>
        <g fill="#C6C7D4" fill-rule="nonzero" stroke="#C6C7D4" stroke-width=".4">
            <path d="M19.957 23H2.043C1.468 23 1 22.54 1 21.975V2.025C1 1.46 1.468 1 2.043 1h17.914C20.532 1 21 1.46 21 2.025v19.95C21 22.54 20.532 23 19.957 23zM2.043 1.276a.757.757 0 0 0-.762.75v19.949c0 .413.342.75.762.75h17.914c.42 0 .762-.337.762-.75V2.025a.757.757 0 0 0-.762-.75H2.043z"/>
            <path d="M16.86 11.5H5.14c-.077 0-.14-.112-.14-.25s.063-.25.14-.25h11.72c.077 0 .14.112.14.25s-.063.25-.14.25zM16.86 14.5H5.14c-.077 0-.14-.112-.14-.25s.063-.25.14-.25h11.72c.077 0 .14.112.14.25s-.063.25-.14.25zM16.86 17.5H5.14c-.077 0-.14-.112-.14-.25s.063-.25.14-.25h11.72c.077 0 .14.112.14.25s-.063.25-.14.25zM12.907 5.5H5.093C5.042 5.5 5 5.388 5 5.25S5.042 5 5.093 5h7.814c.051 0 .093.112.093.25s-.042.25-.093.25zM16.86 8.5H5.14c-.077 0-.14-.112-.14-.25S5.063 8 5.14 8h11.72c.077 0 .14.112.14.25s-.063.25-.14.25z"/>
        </g>
    </g>
</svg>
