<?xml version="1.0" standalone="no"?>
<!DOCTYPE svg PUBLIC "-//W3C//DTD SVG 20010904//EN"
 "http://www.w3.org/TR/2001/REC-SVG-20010904/DTD/svg10.dtd">
<svg version="1.0" xmlns="http://www.w3.org/2000/svg"
 width="195.000000pt" height="195.000000pt" viewBox="0 0 195.000000 195.000000"
 preserveAspectRatio="xMidYMid meet">
<metadata>
Created by potrace 1.11, written by Peter Selinger 2001-2013
</metadata>
<g transform="translate(0.000000,195.000000) scale(0.100000,-0.100000)"
fill="#000000" stroke="none">
<path d="M837 1925 c-225 -63 -400 -250 -513 -553 -25 -65 -52 -162 -60 -215
-2 -16 -6 -32 -8 -36 -17 -26 -25 -314 -12 -416 35 -286 178 -517 384 -620 69
-35 154 -63 211 -71 130 -19 311 -6 370 26 12 6 21 8 21 5 0 -3 22 6 49 19
218 111 339 293 407 611 3 17 8 98 9 180 5 190 -24 364 -80 490 -109 244 -181
352 -314 468 -47 41 -149 94 -211 110 -71 18 -192 19 -253 2z"/>
</g>
</svg>
